<?xml version="1.0" encoding="utf-8"?>
<!-- Generator: Adobe Illustrator 22.0.1, SVG Export Plug-In . SVG Version: 6.00 Build 0)  -->
<svg version="1.1" id="Layer_1" xmlns="http://www.w3.org/2000/svg" xmlns:xlink="http://www.w3.org/1999/xlink" x="0px" y="0px"
	 viewBox="0 0 32 32" style="enable-background:new 0 0 32 32;" xml:space="preserve">
<style type="text/css">
	.st0{fill:#FFEBB7;}
	.st1{fill:#5C546A;}
	.st2{fill:#00C37A;}
	.st3{fill:#009BCA;}
	.st4{fill:#E6BE94;}
	.st5{fill:#FF4F19;}
</style>
<g>
	<g>
		<path class="st0" d="M30.5,30.2H6.7c-2.6,0-4.6-2.1-4.6-4.6v-0.9c0-2.6,2.1-4.6,4.6-4.6h23.8V30.2z"/>
	</g>
	<g>
		<rect x="3" y="21.1" class="st1" width="2.5" height="8.1"/>
	</g>
	<g>
		<path class="st0" d="M28,18.5H1v-7.1h27c0.8,0,1.4,0.6,1.4,1.4v4.3C29.4,17.9,28.8,18.5,28,18.5z"/>
	</g>
	<g>
		<rect x="4.6" y="2.3" class="st0" width="25.9" height="7.6"/>
	</g>
	<g>
		<path class="st2" d="M30.5,31.2H7.1c-3.4,0-6.1-2.7-6.1-6.1S3.8,19,7.1,19h23.4c0.6,0,1,0.5,1,1s-0.5,1-1,1H7.1
			c-2.2,0-4.1,1.8-4.1,4.1s1.8,4.1,4.1,4.1h23.4c0.6,0,1,0.5,1,1C31.5,30.8,31,31.2,30.5,31.2z"/>
	</g>
	<g>
		<g>
			<path class="st3" d="M27.4,19H0.5C0.2,19,0,18.8,0,18.5S0.2,18,0.5,18h26.9c0.8,0,1.5-0.7,1.5-1.5v-3c0-0.8-0.7-1.5-1.5-1.5H0.5
				c-0.3,0-0.5-0.2-0.5-0.5s0.2-0.5,0.5-0.5h26.9c1.4,0,2.5,1.1,2.5,2.5v3C30,17.9,28.8,19,27.4,19z"/>
		</g>
	</g>
	<g>
		<path class="st4" d="M30.5,4.8H7.1c-0.3,0-0.5-0.2-0.5-0.5l0,0c0-0.3,0.2-0.5,0.5-0.5h23.4V4.8z"/>
	</g>
	<g>
		<path class="st4" d="M30.5,6.9H7.1c-0.3,0-0.5-0.2-0.5-0.5l0,0c0-0.3,0.2-0.5,0.5-0.5h23.4V6.9z"/>
	</g>
	<g>
		<path class="st4" d="M30.5,8.9H7.1c-0.3,0-0.5-0.2-0.5-0.5l0,0c0-0.3,0.2-0.5,0.5-0.5h23.4V8.9z"/>
	</g>
	<g>
		<path class="st4" d="M1,13h26.4c0.3,0,0.5,0.2,0.5,0.5l0,0c0,0.3-0.2,0.5-0.5,0.5H1C1,14,1,13,1,13z"/>
	</g>
	<g>
		<path class="st4" d="M1,15h26.4c0.3,0,0.5,0.2,0.5,0.5l0,0c0,0.3-0.2,0.5-0.5,0.5H1C1,16,1,15,1,15z"/>
	</g>
	<g>
		<path class="st4" d="M1,17h26.4c0.3,0,0.5,0.2,0.5,0.5l0,0c0,0.3-0.2,0.5-0.5,0.5H1C1,18,1,17,1,17z"/>
	</g>
	<g>
		<path class="st5" d="M31,10.9H6.6c-1.7,0-3-1.4-3-3V3.8c0-1.7,1.4-3,3-3H31c0.6,0,1,0.5,1,1s-0.5,1-1,1H6.6c-0.6,0-1,0.5-1,1v4.1
			c0,0.6,0.5,1,1,1H31c0.6,0,1,0.5,1,1C32,10.5,31.5,10.9,31,10.9z"/>
	</g>
	<g>
		<path class="st4" d="M7.1,28.2c-0.3,0-0.5,0.2-0.5,0.5s0.2,0.5,0.5,0.5h23.4v-1H7.1z"/>
	</g>
	<g>
		<path class="st4" d="M7.1,26.2c-0.3,0-0.5,0.2-0.5,0.5s0.2,0.5,0.5,0.5h23.4v-1H7.1z"/>
	</g>
	<g>
		<path class="st4" d="M7.1,24.1c-0.3,0-0.5,0.2-0.5,0.5s0.2,0.5,0.5,0.5h23.4v-1H7.1z"/>
	</g>
	<g>
		<path class="st4" d="M7.1,22.1c-0.3,0-0.5,0.2-0.5,0.5s0.2,0.5,0.5,0.5h23.4v-1H7.1z"/>
	</g>
</g>
</svg>
